<svg width="16" height="16" viewBox="0 0 16 16" fill="none" xmlns="http://www.w3.org/2000/svg">
<path d="M12.1267 11.8333H5.0267C4.3667 11.8333 3.73337 11.5533 3.2867 11.0666C2.84004 10.5799 2.61337 9.92658 2.66671 9.26658L3.22004 2.62659C3.24004 2.41992 3.1667 2.21992 3.0267 2.06659C2.8867 1.91326 2.69337 1.83325 2.4867 1.83325H1.33337C1.06004 1.83325 0.833374 1.60659 0.833374 1.33325C0.833374 1.05992 1.06004 0.833252 1.33337 0.833252H2.49338C2.98004 0.833252 3.44004 1.03992 3.7667 1.39325C3.9467 1.59325 4.08004 1.82659 4.15337 2.08659H12.48C13.1534 2.08659 13.7734 2.35325 14.2267 2.83325C14.6734 3.31992 14.9 3.95325 14.8467 4.62659L14.4867 9.62659C14.4134 10.8466 13.3467 11.8333 12.1267 11.8333ZM4.18671 3.07992L3.66671 9.34658C3.63337 9.73324 3.76004 10.0999 4.02004 10.3866C4.28004 10.6732 4.64004 10.8266 5.0267 10.8266H12.1267C12.82 10.8266 13.4467 10.2399 13.5 9.54659L13.86 4.54659C13.8867 4.15326 13.76 3.77993 13.5 3.50659C13.24 3.22659 12.88 3.07324 12.4867 3.07324H4.18671V3.07992Z" fill="#4E5556"/>
<path d="M10.8333 15.1667C10.1 15.1667 9.5 14.5667 9.5 13.8333C9.5 13.1 10.1 12.5 10.8333 12.5C11.5667 12.5 12.1667 13.1 12.1667 13.8333C12.1667 14.5667 11.5667 15.1667 10.8333 15.1667ZM10.8333 13.5C10.6467 13.5 10.5 13.6467 10.5 13.8333C10.5 14.02 10.6467 14.1667 10.8333 14.1667C11.02 14.1667 11.1667 14.02 11.1667 13.8333C11.1667 13.6467 11.02 13.5 10.8333 13.5Z" fill="#4E5556"/>
<path d="M5.49996 15.1667C4.76663 15.1667 4.16663 14.5667 4.16663 13.8333C4.16663 13.1 4.76663 12.5 5.49996 12.5C6.23329 12.5 6.83329 13.1 6.83329 13.8333C6.83329 14.5667 6.23329 15.1667 5.49996 15.1667ZM5.49996 13.5C5.31329 13.5 5.16663 13.6467 5.16663 13.8333C5.16663 14.02 5.31329 14.1667 5.49996 14.1667C5.68663 14.1667 5.83329 14.02 5.83329 13.8333C5.83329 13.6467 5.68663 13.5 5.49996 13.5Z" fill="#4E5556"/>
<path d="M14 5.83325H6C5.72667 5.83325 5.5 5.60659 5.5 5.33325C5.5 5.05992 5.72667 4.83325 6 4.83325H14C14.2733 4.83325 14.5 5.05992 14.5 5.33325C14.5 5.60659 14.2733 5.83325 14 5.83325Z" fill="#4E5556"/>
</svg>
